M48
METRIC,TZ
T1C0.400
T2C0.800
T3C0.899
T4C1.000
T5C1.300
T6C1.321
T7C2.200
T8C3.251
%
G90
G05
T1
X112300Y-87400
X116400Y-76400
X116500Y-94200
X117000Y-102200
X124400Y-93900
X126300Y-92100
X128600Y-92100
X134400Y-81700
X134600Y-97700
X137700Y-75400
X146000Y-78000
X154100Y-77700
T2
X134000Y-62000
X134000Y-84000
X136000Y-62000
X136000Y-84000
X138000Y-62000
X138000Y-84000
X140000Y-62000
X140000Y-84000
X142000Y-62000
X142000Y-84000
X144000Y-62000
X144000Y-84000
X146000Y-62000
X146000Y-84000
X148000Y-62000
X148000Y-84000
X150000Y-62000
X150000Y-84000
X152000Y-62000
X152000Y-84000
T3
X111850Y-67805
X111850Y-70345
X111850Y-72885
X111850Y-75425
X114390Y-69075
X114390Y-71615
X114390Y-74155
X114390Y-76695
T4
X117500Y-61750
X129500Y-61750
T5
X113490Y-82560
X117500Y-73950
X118690Y-111960
X123500Y-59750
X123690Y-111960
X128890Y-82560
X129500Y-73950
T6
X104000Y-83750
X104000Y-88750
X104000Y-93750
X104000Y-100000
X104000Y-105000
T7
X102357Y-61529
X102357Y-111323
X178709Y-61529
X178709Y-111323
T8
X105500Y-66319
X105500Y-78189
T0
M30
