G04 #@! TF.GenerationSoftware,KiCad,Pcbnew,no-vcs-found*
G04 #@! TF.CreationDate,2016-12-05T19:06:41+01:00*
G04 #@! TF.ProjectId,relayboard,72656C6179626F6172642E6B69636164,rev?*
G04 #@! TF.FileFunction,Legend,Top*
G04 #@! TF.FilePolarity,Positive*
%FSLAX46Y46*%
G04 Gerber Fmt 4.6, Leading zero omitted, Abs format (unit mm)*
G04 Created by KiCad (PCBNEW no-vcs-found) date Mon Dec  5 19:06:41 2016*
%MOMM*%
%LPD*%
G01*
G04 APERTURE LIST*
%ADD10C,0.100000*%
%ADD11C,0.150000*%
%ADD12C,0.381000*%
%ADD13C,0.200660*%
%ADD14C,0.203200*%
%ADD15C,0.304800*%
G04 APERTURE END LIST*
D10*
D11*
X133005000Y-60800000D02*
X153005000Y-60800000D01*
X153005000Y-63200000D02*
X133005000Y-63200000D01*
X132805000Y-85200000D02*
X153005000Y-85200000D01*
X153005000Y-82800000D02*
X132805000Y-82800000D01*
X133005000Y-63200000D02*
X133005000Y-61000000D01*
X133005000Y-61000000D02*
X133005000Y-60800000D01*
X153005000Y-60800000D02*
X153005000Y-63200000D01*
X153005000Y-82800000D02*
X153005000Y-85200000D01*
X132805000Y-85200000D02*
X132805000Y-82800000D01*
X132410000Y-58395000D02*
X132384600Y-86563600D01*
X132384600Y-86563600D02*
X182371800Y-86563600D01*
X182371800Y-86563600D02*
X182371800Y-82525000D01*
X182371800Y-82525000D02*
X183921200Y-82525000D01*
X183921200Y-82525000D02*
X183921200Y-63602000D01*
X183921200Y-63602000D02*
X182422600Y-63602000D01*
X182422600Y-63602000D02*
X182422600Y-58420400D01*
X182422600Y-58420400D02*
X132486200Y-58420400D01*
X132486200Y-58420400D02*
X132435400Y-58471200D01*
D12*
X134760000Y-97940000D02*
X134760000Y-96670000D01*
X135395000Y-97305000D02*
X134125000Y-97305000D01*
D13*
X158980256Y-101750000D02*
G75*
G03X158980256Y-101750000I-8980256J0D01*
G01*
X160924953Y-101750000D02*
G75*
G03X160924953Y-101750000I-10924953J0D01*
G01*
D11*
X115660000Y-64630000D02*
X97626000Y-64630000D01*
X115660000Y-79870000D02*
X115660000Y-64630000D01*
X97626000Y-79870000D02*
X115660000Y-79870000D01*
X97626000Y-64630000D02*
X97626000Y-79870000D01*
X115800000Y-74750000D02*
X115800000Y-78050000D01*
X115800000Y-78050000D02*
X131200000Y-78050000D01*
X131200000Y-78050000D02*
X131200000Y-74700000D01*
X122150000Y-58450000D02*
X115800000Y-58450000D01*
X115800000Y-58450000D02*
X115800000Y-73000000D01*
X124900000Y-58450000D02*
X131200000Y-58450000D01*
X131200000Y-58450000D02*
X131200000Y-73200000D01*
X131150000Y-58450000D02*
X124900000Y-58450000D01*
X119300000Y-73900000D02*
X121750000Y-73900000D01*
X127700000Y-73900000D02*
X125200000Y-73900000D01*
X117450000Y-63300000D02*
X117450000Y-65800000D01*
X123450000Y-62400000D02*
X123450000Y-61600000D01*
X129450000Y-65800000D02*
X129450000Y-63300000D01*
X123450000Y-69200000D02*
X123450000Y-70700000D01*
X123450000Y-70700000D02*
X125950000Y-75300000D01*
X119850000Y-69200000D02*
X119850000Y-62400000D01*
X123450000Y-69200000D02*
X119850000Y-69200000D01*
X123450000Y-62400000D02*
X119850000Y-62400000D01*
X129450000Y-65800000D02*
X125250000Y-65800000D01*
X121650000Y-65800000D02*
X117450000Y-65800000D01*
X121650000Y-67800000D02*
X125250000Y-63800000D01*
X121650000Y-63800000D02*
X125250000Y-63800000D01*
X125250000Y-63800000D02*
X125250000Y-67800000D01*
X125250000Y-67800000D02*
X121650000Y-67800000D01*
X121650000Y-67800000D02*
X121650000Y-63800000D01*
X109051019Y-98435480D02*
G75*
G03X108127500Y-98580380I-405359J-431920D01*
G01*
X109061847Y-101541573D02*
G75*
G03X109003800Y-98384800I-1353447J1554033D01*
G01*
X108165104Y-98539012D02*
G75*
G03X108117340Y-101526780I1905496J-1524728D01*
G01*
X108082890Y-101479149D02*
G75*
G03X109052060Y-101534400I511970J452749D01*
G01*
X109053481Y-103439903D02*
G75*
G03X108127500Y-103581640I-407821J-431297D01*
G01*
X109056844Y-106539411D02*
G75*
G03X109003800Y-103388600I-1348444J1553151D01*
G01*
X108165104Y-103540272D02*
G75*
G03X108117340Y-106528040I1905496J-1524728D01*
G01*
X108085430Y-106482972D02*
G75*
G03X109052060Y-106535660I509430J452772D01*
G01*
X104254000Y-103363200D02*
X104254000Y-106665200D01*
X104254000Y-102982200D02*
X104254000Y-103363200D01*
X104254000Y-107046200D02*
X104254000Y-106665200D01*
X104635000Y-106665200D02*
X104635000Y-103363200D01*
X104635000Y-107605000D02*
X104635000Y-106665200D01*
X104635000Y-101661400D02*
X104635000Y-103363200D01*
X104635000Y-98359400D02*
X104635000Y-101661400D01*
X104635000Y-97420000D02*
X104635000Y-98359400D01*
X104254000Y-101661400D02*
X104254000Y-98359400D01*
X104254000Y-102042400D02*
X104254000Y-101661400D01*
X104254000Y-97978400D02*
X104254000Y-98359400D01*
X108318000Y-98511800D02*
X108953000Y-101559800D01*
X108445000Y-98384800D02*
X109080000Y-101435340D01*
X108318000Y-103515600D02*
X108953000Y-106563600D01*
X108445000Y-103388600D02*
X109080000Y-106436600D01*
X109969000Y-102042400D02*
X109969000Y-97978400D01*
X107429000Y-97978400D02*
X109969000Y-97978400D01*
X107429000Y-102042400D02*
X107429000Y-97978400D01*
X107429000Y-102042400D02*
X109969000Y-102042400D01*
X107429000Y-107046200D02*
X107429000Y-102982200D01*
X109969000Y-107046200D02*
X107429000Y-107046200D01*
X109969000Y-102982200D02*
X109969000Y-107046200D01*
X107429000Y-102982200D02*
X109969000Y-102982200D01*
X107175000Y-107605000D02*
X105651000Y-107605000D01*
X107175000Y-97420000D02*
X110223000Y-97420000D01*
X107175000Y-97420000D02*
X107175000Y-107605000D01*
X104635000Y-107605000D02*
X99936000Y-107605000D01*
X105651000Y-107605000D02*
X104635000Y-107605000D01*
X104635000Y-97420000D02*
X107175000Y-97420000D01*
X97777000Y-97420000D02*
X104635000Y-97420000D01*
X103492000Y-106665200D02*
X103492000Y-106284200D01*
X103492000Y-103363200D02*
X103492000Y-103744200D01*
X103492000Y-101661400D02*
X103492000Y-101280400D01*
X103492000Y-98359400D02*
X103492000Y-98740400D01*
X100317000Y-98359400D02*
X103492000Y-98359400D01*
X100317000Y-101661400D02*
X100317000Y-98359400D01*
X100317000Y-101661400D02*
X103492000Y-101661400D01*
X100317000Y-103363200D02*
X103492000Y-103363200D01*
X100317000Y-106665200D02*
X100317000Y-103363200D01*
X100317000Y-106665200D02*
X103492000Y-106665200D01*
X99682000Y-97978400D02*
X97777000Y-97978400D01*
X99682000Y-102042400D02*
X104254000Y-102042400D01*
X99682000Y-102042400D02*
X99682000Y-97978400D01*
X99682000Y-107046200D02*
X97777000Y-107046200D01*
X99682000Y-102982200D02*
X104254000Y-102982200D01*
X99682000Y-102982200D02*
X99682000Y-107046200D01*
X97777000Y-97978400D02*
X97777000Y-102042400D01*
X97777000Y-97420000D02*
X97777000Y-97978400D01*
X104254000Y-97978400D02*
X99682000Y-97978400D01*
X97777000Y-102042400D02*
X97777000Y-102982200D01*
X97777000Y-102042400D02*
X99682000Y-102042400D01*
X97777000Y-107046200D02*
X97777000Y-107605000D01*
X97777000Y-102982200D02*
X97777000Y-107046200D01*
X104254000Y-107046200D02*
X99682000Y-107046200D01*
X97777000Y-102982200D02*
X99682000Y-102982200D01*
X100190000Y-108113000D02*
X98539000Y-108113000D01*
X99936000Y-107605000D02*
X98793000Y-107605000D01*
X100190000Y-108113000D02*
X99936000Y-107605000D01*
X98793000Y-107605000D02*
X97777000Y-107605000D01*
X98539000Y-108113000D02*
X98793000Y-107605000D01*
X105397000Y-108113000D02*
X105651000Y-107605000D01*
X110223000Y-108113000D02*
X105397000Y-108113000D01*
X110223000Y-107605000D02*
X110223000Y-108113000D01*
X110223000Y-107605000D02*
X110223000Y-97420000D01*
X110223000Y-107605000D02*
X107175000Y-107605000D01*
X101460000Y-103744200D02*
X104254000Y-103744200D01*
X104254000Y-103744200D02*
X104254000Y-106284200D01*
X101460000Y-106284200D02*
X104254000Y-106284200D01*
X101460000Y-103744200D02*
X101460000Y-106284200D01*
X101460000Y-98740400D02*
X104254000Y-98740400D01*
X104254000Y-98740400D02*
X104254000Y-101280400D01*
X101460000Y-101280400D02*
X104254000Y-101280400D01*
X101460000Y-98740400D02*
X101460000Y-101280400D01*
X111090000Y-114260000D02*
X131290000Y-114260000D01*
X131290000Y-80260000D02*
X131290000Y-114260000D01*
X111090000Y-80260000D02*
X131290000Y-80260000D01*
X111090000Y-114260000D02*
X111090000Y-80260000D01*
X109061019Y-82160480D02*
G75*
G03X108137500Y-82305380I-405359J-431920D01*
G01*
X109071847Y-85266573D02*
G75*
G03X109013800Y-82109800I-1353447J1554033D01*
G01*
X108175104Y-82264012D02*
G75*
G03X108127340Y-85251780I1905496J-1524728D01*
G01*
X108092890Y-85204149D02*
G75*
G03X109062060Y-85259400I511970J452749D01*
G01*
X109063481Y-87164903D02*
G75*
G03X108137500Y-87306640I-407821J-431297D01*
G01*
X109066844Y-90264411D02*
G75*
G03X109013800Y-87113600I-1348444J1553151D01*
G01*
X108175104Y-87265272D02*
G75*
G03X108127340Y-90253040I1905496J-1524728D01*
G01*
X108095430Y-90207972D02*
G75*
G03X109062060Y-90260660I509430J452772D01*
G01*
X104264000Y-87088200D02*
X104264000Y-90390200D01*
X104264000Y-86707200D02*
X104264000Y-87088200D01*
X104264000Y-90771200D02*
X104264000Y-90390200D01*
X104264000Y-85386400D02*
X104264000Y-82084400D01*
X104264000Y-85767400D02*
X104264000Y-85386400D01*
X104264000Y-81703400D02*
X104264000Y-82084400D01*
X108328000Y-82236800D02*
X108963000Y-85284800D01*
X108455000Y-82109800D02*
X109090000Y-85160340D01*
X108328000Y-87240600D02*
X108963000Y-90288600D01*
X108455000Y-87113600D02*
X109090000Y-90161600D01*
X109979000Y-85767400D02*
X109979000Y-81703400D01*
X107439000Y-81703400D02*
X109979000Y-81703400D01*
X107439000Y-85767400D02*
X107439000Y-81703400D01*
X107439000Y-85767400D02*
X109979000Y-85767400D01*
X107439000Y-90771200D02*
X107439000Y-86707200D01*
X109979000Y-90771200D02*
X107439000Y-90771200D01*
X109979000Y-86707200D02*
X109979000Y-90771200D01*
X107439000Y-86707200D02*
X109979000Y-86707200D01*
X107185000Y-81170000D02*
X110233000Y-81170000D01*
X107185000Y-81170000D02*
X107185000Y-91330000D01*
X104645000Y-81170000D02*
X107185000Y-81170000D01*
X97787000Y-81170000D02*
X104645000Y-81170000D01*
X103502000Y-90390200D02*
X103502000Y-90009200D01*
X103502000Y-87088200D02*
X103502000Y-87469200D01*
X103502000Y-85386400D02*
X103502000Y-85005400D01*
X103502000Y-82084400D02*
X103502000Y-82465400D01*
X100327000Y-82084400D02*
X103502000Y-82084400D01*
X100327000Y-85386400D02*
X100327000Y-82084400D01*
X100327000Y-85386400D02*
X103502000Y-85386400D01*
X100327000Y-87088200D02*
X103502000Y-87088200D01*
X100327000Y-90390200D02*
X100327000Y-87088200D01*
X100327000Y-90390200D02*
X103502000Y-90390200D01*
X99692000Y-81703400D02*
X97787000Y-81703400D01*
X99692000Y-85767400D02*
X104264000Y-85767400D01*
X99692000Y-85767400D02*
X99692000Y-81703400D01*
X99692000Y-90771200D02*
X97787000Y-90771200D01*
X99692000Y-86707200D02*
X104264000Y-86707200D01*
X99692000Y-86707200D02*
X99692000Y-90771200D01*
X97787000Y-81703400D02*
X97787000Y-85767400D01*
X97787000Y-81170000D02*
X97787000Y-81703400D01*
X104264000Y-81703400D02*
X99692000Y-81703400D01*
X97787000Y-85767400D02*
X97787000Y-86707200D01*
X97787000Y-85767400D02*
X99692000Y-85767400D01*
X97787000Y-90771200D02*
X97787000Y-91330000D01*
X97787000Y-86707200D02*
X97787000Y-90771200D01*
X104264000Y-90771200D02*
X99692000Y-90771200D01*
X97787000Y-86707200D02*
X99692000Y-86707200D01*
X99946000Y-91774500D02*
X98803000Y-91774500D01*
X98803000Y-91774500D02*
X97787000Y-91774500D01*
X101470000Y-87469200D02*
X104264000Y-87469200D01*
X104264000Y-87469200D02*
X104264000Y-90009200D01*
X101470000Y-90009200D02*
X104264000Y-90009200D01*
X101470000Y-87469200D02*
X101470000Y-90009200D01*
X101470000Y-82465400D02*
X104264000Y-82465400D01*
X104264000Y-82465400D02*
X104264000Y-85005400D01*
X101470000Y-85005400D02*
X104264000Y-85005400D01*
X101470000Y-82465400D02*
X101470000Y-85005400D01*
X101470000Y-92549200D02*
X101470000Y-95089200D01*
X101470000Y-95089200D02*
X104264000Y-95089200D01*
X104264000Y-92549200D02*
X104264000Y-95089200D01*
X101470000Y-92549200D02*
X104264000Y-92549200D01*
X110233000Y-96410000D02*
X107185000Y-96410000D01*
X110233000Y-96410000D02*
X110233000Y-96918000D01*
X110233000Y-96918000D02*
X105407000Y-96918000D01*
X105407000Y-96918000D02*
X105661000Y-96410000D01*
X98549000Y-96918000D02*
X98803000Y-96410000D01*
X98803000Y-96410000D02*
X97787000Y-96410000D01*
X100200000Y-96918000D02*
X99946000Y-96410000D01*
X99946000Y-96410000D02*
X98803000Y-96410000D01*
X100200000Y-96918000D02*
X98549000Y-96918000D01*
X97787000Y-91787200D02*
X99692000Y-91787200D01*
X104264000Y-95851200D02*
X99692000Y-95851200D01*
X97787000Y-95851200D02*
X97787000Y-96410000D01*
X99692000Y-91787200D02*
X99692000Y-95851200D01*
X99692000Y-95851200D02*
X97787000Y-95851200D01*
X100327000Y-95470200D02*
X103502000Y-95470200D01*
X100327000Y-95470200D02*
X100327000Y-92168200D01*
X100327000Y-92168200D02*
X103502000Y-92168200D01*
X103502000Y-92168200D02*
X103502000Y-92549200D01*
X103502000Y-95470200D02*
X103502000Y-95089200D01*
X105661000Y-96410000D02*
X104645000Y-96410000D01*
X104645000Y-96410000D02*
X99946000Y-96410000D01*
X107185000Y-96410000D02*
X105661000Y-96410000D01*
X107439000Y-91787200D02*
X109979000Y-91787200D01*
X109979000Y-91787200D02*
X109979000Y-95851200D01*
X109979000Y-95851200D02*
X107439000Y-95851200D01*
X107439000Y-95851200D02*
X107439000Y-91787200D01*
X108455000Y-92193600D02*
X109090000Y-95241600D01*
X108328000Y-92320600D02*
X108963000Y-95368600D01*
X104264000Y-95851200D02*
X104264000Y-95470200D01*
X104264000Y-91787200D02*
X104264000Y-92168200D01*
X104264000Y-92168200D02*
X104264000Y-95470200D01*
X108095430Y-95287972D02*
G75*
G03X109062060Y-95340660I509430J452772D01*
G01*
X108175104Y-92345272D02*
G75*
G03X108127340Y-95333040I1905496J-1524728D01*
G01*
X109066844Y-95344411D02*
G75*
G03X109013800Y-92193600I-1348444J1553151D01*
G01*
X109063481Y-92244903D02*
G75*
G03X108137500Y-92386640I-407821J-431297D01*
G01*
X110233000Y-81170000D02*
X110233000Y-96410000D01*
X107185000Y-91330000D02*
X107185000Y-96346500D01*
X97787000Y-95838500D02*
X97787000Y-91330000D01*
X100009500Y-91774500D02*
X104264000Y-91774500D01*
X104645000Y-96410000D02*
X104645000Y-81233500D01*
D14*
X133682619Y-66614523D02*
X133682619Y-65344523D01*
X134166428Y-65344523D01*
X134287380Y-65405000D01*
X134347857Y-65465476D01*
X134408333Y-65586428D01*
X134408333Y-65767857D01*
X134347857Y-65888809D01*
X134287380Y-65949285D01*
X134166428Y-66009761D01*
X133682619Y-66009761D01*
X134831666Y-65344523D02*
X135617857Y-65344523D01*
X135194523Y-65828333D01*
X135375952Y-65828333D01*
X135496904Y-65888809D01*
X135557380Y-65949285D01*
X135617857Y-66070238D01*
X135617857Y-66372619D01*
X135557380Y-66493571D01*
X135496904Y-66554047D01*
X135375952Y-66614523D01*
X135013095Y-66614523D01*
X134892142Y-66554047D01*
X134831666Y-66493571D01*
D15*
X148662571Y-101491142D02*
X148880285Y-101563714D01*
X148952857Y-101636285D01*
X149025428Y-101781428D01*
X149025428Y-101999142D01*
X148952857Y-102144285D01*
X148880285Y-102216857D01*
X148735142Y-102289428D01*
X148154571Y-102289428D01*
X148154571Y-100765428D01*
X148662571Y-100765428D01*
X148807714Y-100838000D01*
X148880285Y-100910571D01*
X148952857Y-101055714D01*
X148952857Y-101200857D01*
X148880285Y-101346000D01*
X148807714Y-101418571D01*
X148662571Y-101491142D01*
X148154571Y-101491142D01*
X149460857Y-100765428D02*
X150331714Y-100765428D01*
X149896285Y-102289428D02*
X149896285Y-100765428D01*
X151638000Y-102289428D02*
X150767142Y-102289428D01*
X151202571Y-102289428D02*
X151202571Y-100765428D01*
X151057428Y-100983142D01*
X150912285Y-101128285D01*
X150767142Y-101200857D01*
D11*
X100126380Y-72583333D02*
X100840666Y-72583333D01*
X100983523Y-72630952D01*
X101078761Y-72726190D01*
X101126380Y-72869047D01*
X101126380Y-72964285D01*
X101126380Y-71583333D02*
X101126380Y-72154761D01*
X101126380Y-71869047D02*
X100126380Y-71869047D01*
X100269238Y-71964285D01*
X100364476Y-72059523D01*
X100412095Y-72154761D01*
X119149904Y-59888380D02*
X119149904Y-58888380D01*
X119721333Y-59888380D02*
X119292761Y-59316952D01*
X119721333Y-58888380D02*
X119149904Y-59459809D01*
X120673714Y-59888380D02*
X120102285Y-59888380D01*
X120388000Y-59888380D02*
X120388000Y-58888380D01*
X120292761Y-59031238D01*
X120197523Y-59126476D01*
X120102285Y-59174095D01*
X99004380Y-100814095D02*
X98004380Y-100814095D01*
X98004380Y-100433142D01*
X98052000Y-100337904D01*
X98099619Y-100290285D01*
X98194857Y-100242666D01*
X98337714Y-100242666D01*
X98432952Y-100290285D01*
X98480571Y-100337904D01*
X98528190Y-100433142D01*
X98528190Y-100814095D01*
X99004380Y-99290285D02*
X99004380Y-99861714D01*
X99004380Y-99576000D02*
X98004380Y-99576000D01*
X98147238Y-99671238D01*
X98242476Y-99766476D01*
X98290095Y-99861714D01*
X113561904Y-112212380D02*
X113561904Y-111212380D01*
X113942857Y-111212380D01*
X114038095Y-111260000D01*
X114085714Y-111307619D01*
X114133333Y-111402857D01*
X114133333Y-111545714D01*
X114085714Y-111640952D01*
X114038095Y-111688571D01*
X113942857Y-111736190D01*
X113561904Y-111736190D01*
X114514285Y-111307619D02*
X114561904Y-111260000D01*
X114657142Y-111212380D01*
X114895238Y-111212380D01*
X114990476Y-111260000D01*
X115038095Y-111307619D01*
X115085714Y-111402857D01*
X115085714Y-111498095D01*
X115038095Y-111640952D01*
X114466666Y-112212380D01*
X115085714Y-112212380D01*
X99004380Y-89638095D02*
X98004380Y-89638095D01*
X98004380Y-89257142D01*
X98052000Y-89161904D01*
X98099619Y-89114285D01*
X98194857Y-89066666D01*
X98337714Y-89066666D01*
X98432952Y-89114285D01*
X98480571Y-89161904D01*
X98528190Y-89257142D01*
X98528190Y-89638095D01*
X98337714Y-88209523D02*
X99004380Y-88209523D01*
X97956761Y-88447619D02*
X98671047Y-88685714D01*
X98671047Y-88066666D01*
M02*
