G04 #@! TF.GenerationSoftware,KiCad,Pcbnew,no-vcs-found*
G04 #@! TF.CreationDate,2016-12-05T19:06:41+01:00*
G04 #@! TF.ProjectId,relayboard,72656C6179626F6172642E6B69636164,rev?*
G04 #@! TF.FileFunction,Legend,Bot*
G04 #@! TF.FilePolarity,Positive*
%FSLAX46Y46*%
G04 Gerber Fmt 4.6, Leading zero omitted, Abs format (unit mm)*
G04 Created by KiCad (PCBNEW no-vcs-found) date Mon Dec  5 19:06:41 2016*
%MOMM*%
%LPD*%
G01*
G04 APERTURE LIST*
%ADD10C,0.100000*%
%ADD11C,0.150000*%
G04 APERTURE END LIST*
D10*
D11*
X116725000Y-104400000D02*
X116725000Y-105600000D01*
X118475000Y-105600000D02*
X118475000Y-104400000D01*
X154449160Y-79850240D02*
X154400900Y-79850240D01*
X151650180Y-79149200D02*
X151650180Y-79850240D01*
X151650180Y-79850240D02*
X151899100Y-79850240D01*
X154449160Y-79850240D02*
X154649820Y-79850240D01*
X154649820Y-79850240D02*
X154649820Y-79149200D01*
X153275000Y-76300000D02*
X153275000Y-75100000D01*
X151525000Y-75100000D02*
X151525000Y-76300000D01*
X149425000Y-79450000D02*
X149425000Y-80650000D01*
X151175000Y-80650000D02*
X151175000Y-79450000D01*
X132540000Y-76025000D02*
X132540000Y-74625000D01*
X137640000Y-76025000D02*
X137640000Y-80175000D01*
X132490000Y-76025000D02*
X132490000Y-80175000D01*
X137640000Y-76025000D02*
X137495000Y-76025000D01*
X137640000Y-80175000D02*
X137495000Y-80175000D01*
X132490000Y-80175000D02*
X132635000Y-80175000D01*
X132490000Y-76025000D02*
X132540000Y-76025000D01*
X115550000Y-94200000D02*
X115550000Y-93200000D01*
X117250000Y-93200000D02*
X117250000Y-94200000D01*
X125450000Y-94300000D02*
X125450000Y-93300000D01*
X127150000Y-93300000D02*
X127150000Y-94300000D01*
X118450000Y-100900000D02*
X118450000Y-101900000D01*
X116750000Y-101900000D02*
X116750000Y-100900000D01*
X122255000Y-64050000D02*
X124655000Y-64050000D01*
X122255000Y-62450000D02*
X124655000Y-62450000D01*
X145500180Y-75599760D02*
X145500180Y-76300800D01*
X145700840Y-75599760D02*
X145500180Y-75599760D01*
X148499820Y-75599760D02*
X148250900Y-75599760D01*
X148499820Y-76300800D02*
X148499820Y-75599760D01*
X145700840Y-75599760D02*
X145749100Y-75599760D01*
X126025000Y-100800000D02*
X126025000Y-102000000D01*
X127775000Y-102000000D02*
X127775000Y-100800000D01*
X125475000Y-102000000D02*
X125475000Y-100800000D01*
X123725000Y-100800000D02*
X123725000Y-102000000D01*
X123075000Y-102000000D02*
X123075000Y-100800000D01*
X121325000Y-100800000D02*
X121325000Y-102000000D01*
X119025000Y-100800000D02*
X119025000Y-102000000D01*
X120775000Y-102000000D02*
X120775000Y-100800000D01*
X127725000Y-96700000D02*
X127725000Y-97900000D01*
X129475000Y-97900000D02*
X129475000Y-96700000D01*
X147125000Y-79400000D02*
X147125000Y-80600000D01*
X148875000Y-80600000D02*
X148875000Y-79400000D01*
X129475000Y-94300000D02*
X129475000Y-93100000D01*
X127725000Y-93100000D02*
X127725000Y-94300000D01*
X117844000Y-88414000D02*
X117844000Y-89176000D01*
X119368000Y-86128000D02*
X117844000Y-88414000D01*
X123432000Y-86128000D02*
X119368000Y-86128000D01*
X124956000Y-88414000D02*
X123432000Y-86128000D01*
X124956000Y-89176000D02*
X124956000Y-88414000D01*
X117844000Y-95272000D02*
X117844000Y-92224000D01*
X124956000Y-95272000D02*
X117844000Y-95272000D01*
X124956000Y-92224000D02*
X124956000Y-95272000D01*
X117990857Y-107640380D02*
X118324190Y-107164190D01*
X118562285Y-107640380D02*
X118562285Y-106640380D01*
X118181333Y-106640380D01*
X118086095Y-106688000D01*
X118038476Y-106735619D01*
X117990857Y-106830857D01*
X117990857Y-106973714D01*
X118038476Y-107068952D01*
X118086095Y-107116571D01*
X118181333Y-107164190D01*
X118562285Y-107164190D01*
X117038476Y-107640380D02*
X117609904Y-107640380D01*
X117324190Y-107640380D02*
X117324190Y-106640380D01*
X117419428Y-106783238D01*
X117514666Y-106878476D01*
X117609904Y-106926095D01*
X116419428Y-106640380D02*
X116324190Y-106640380D01*
X116228952Y-106688000D01*
X116181333Y-106735619D01*
X116133714Y-106830857D01*
X116086095Y-107021333D01*
X116086095Y-107259428D01*
X116133714Y-107449904D01*
X116181333Y-107545142D01*
X116228952Y-107592761D01*
X116324190Y-107640380D01*
X116419428Y-107640380D01*
X116514666Y-107592761D01*
X116562285Y-107545142D01*
X116609904Y-107449904D01*
X116657523Y-107259428D01*
X116657523Y-107021333D01*
X116609904Y-106830857D01*
X116562285Y-106735619D01*
X116514666Y-106688000D01*
X116419428Y-106640380D01*
X156051238Y-78779619D02*
X156146476Y-78732000D01*
X156241714Y-78636761D01*
X156384571Y-78493904D01*
X156479809Y-78446285D01*
X156575047Y-78446285D01*
X156527428Y-78684380D02*
X156622666Y-78636761D01*
X156717904Y-78541523D01*
X156765523Y-78351047D01*
X156765523Y-78017714D01*
X156717904Y-77827238D01*
X156622666Y-77732000D01*
X156527428Y-77684380D01*
X156336952Y-77684380D01*
X156241714Y-77732000D01*
X156146476Y-77827238D01*
X156098857Y-78017714D01*
X156098857Y-78351047D01*
X156146476Y-78541523D01*
X156241714Y-78636761D01*
X156336952Y-78684380D01*
X156527428Y-78684380D01*
X155765523Y-77684380D02*
X155146476Y-77684380D01*
X155479809Y-78065333D01*
X155336952Y-78065333D01*
X155241714Y-78112952D01*
X155194095Y-78160571D01*
X155146476Y-78255809D01*
X155146476Y-78493904D01*
X155194095Y-78589142D01*
X155241714Y-78636761D01*
X155336952Y-78684380D01*
X155622666Y-78684380D01*
X155717904Y-78636761D01*
X155765523Y-78589142D01*
X152566666Y-73604380D02*
X152900000Y-73128190D01*
X153138095Y-73604380D02*
X153138095Y-72604380D01*
X152757142Y-72604380D01*
X152661904Y-72652000D01*
X152614285Y-72699619D01*
X152566666Y-72794857D01*
X152566666Y-72937714D01*
X152614285Y-73032952D01*
X152661904Y-73080571D01*
X152757142Y-73128190D01*
X153138095Y-73128190D01*
X151995238Y-73032952D02*
X152090476Y-72985333D01*
X152138095Y-72937714D01*
X152185714Y-72842476D01*
X152185714Y-72794857D01*
X152138095Y-72699619D01*
X152090476Y-72652000D01*
X151995238Y-72604380D01*
X151804761Y-72604380D01*
X151709523Y-72652000D01*
X151661904Y-72699619D01*
X151614285Y-72794857D01*
X151614285Y-72842476D01*
X151661904Y-72937714D01*
X151709523Y-72985333D01*
X151804761Y-73032952D01*
X151995238Y-73032952D01*
X152090476Y-73080571D01*
X152138095Y-73128190D01*
X152185714Y-73223428D01*
X152185714Y-73413904D01*
X152138095Y-73509142D01*
X152090476Y-73556761D01*
X151995238Y-73604380D01*
X151804761Y-73604380D01*
X151709523Y-73556761D01*
X151661904Y-73509142D01*
X151614285Y-73413904D01*
X151614285Y-73223428D01*
X151661904Y-73128190D01*
X151709523Y-73080571D01*
X151804761Y-73032952D01*
X150534666Y-78176380D02*
X150868000Y-77700190D01*
X151106095Y-78176380D02*
X151106095Y-77176380D01*
X150725142Y-77176380D01*
X150629904Y-77224000D01*
X150582285Y-77271619D01*
X150534666Y-77366857D01*
X150534666Y-77509714D01*
X150582285Y-77604952D01*
X150629904Y-77652571D01*
X150725142Y-77700190D01*
X151106095Y-77700190D01*
X149629904Y-77176380D02*
X150106095Y-77176380D01*
X150153714Y-77652571D01*
X150106095Y-77604952D01*
X150010857Y-77557333D01*
X149772761Y-77557333D01*
X149677523Y-77604952D01*
X149629904Y-77652571D01*
X149582285Y-77747809D01*
X149582285Y-77985904D01*
X149629904Y-78081142D01*
X149677523Y-78128761D01*
X149772761Y-78176380D01*
X150010857Y-78176380D01*
X150106095Y-78128761D01*
X150153714Y-78081142D01*
X132017380Y-77123809D02*
X131017380Y-77123809D01*
X131922142Y-78171428D02*
X131969761Y-78123809D01*
X132017380Y-77980952D01*
X132017380Y-77885714D01*
X131969761Y-77742857D01*
X131874523Y-77647619D01*
X131779285Y-77600000D01*
X131588809Y-77552380D01*
X131445952Y-77552380D01*
X131255476Y-77600000D01*
X131160238Y-77647619D01*
X131065000Y-77742857D01*
X131017380Y-77885714D01*
X131017380Y-77980952D01*
X131065000Y-78123809D01*
X131112619Y-78171428D01*
X132017380Y-79123809D02*
X132017380Y-78552380D01*
X132017380Y-78838095D02*
X131017380Y-78838095D01*
X131160238Y-78742857D01*
X131255476Y-78647619D01*
X131303095Y-78552380D01*
X116498666Y-91289142D02*
X116546285Y-91336761D01*
X116689142Y-91384380D01*
X116784380Y-91384380D01*
X116927238Y-91336761D01*
X117022476Y-91241523D01*
X117070095Y-91146285D01*
X117117714Y-90955809D01*
X117117714Y-90812952D01*
X117070095Y-90622476D01*
X117022476Y-90527238D01*
X116927238Y-90432000D01*
X116784380Y-90384380D01*
X116689142Y-90384380D01*
X116546285Y-90432000D01*
X116498666Y-90479619D01*
X115546285Y-91384380D02*
X116117714Y-91384380D01*
X115832000Y-91384380D02*
X115832000Y-90384380D01*
X115927238Y-90527238D01*
X116022476Y-90622476D01*
X116117714Y-90670095D01*
X126658666Y-91797142D02*
X126706285Y-91844761D01*
X126849142Y-91892380D01*
X126944380Y-91892380D01*
X127087238Y-91844761D01*
X127182476Y-91749523D01*
X127230095Y-91654285D01*
X127277714Y-91463809D01*
X127277714Y-91320952D01*
X127230095Y-91130476D01*
X127182476Y-91035238D01*
X127087238Y-90940000D01*
X126944380Y-90892380D01*
X126849142Y-90892380D01*
X126706285Y-90940000D01*
X126658666Y-90987619D01*
X126277714Y-90987619D02*
X126230095Y-90940000D01*
X126134857Y-90892380D01*
X125896761Y-90892380D01*
X125801523Y-90940000D01*
X125753904Y-90987619D01*
X125706285Y-91082857D01*
X125706285Y-91178095D01*
X125753904Y-91320952D01*
X126325333Y-91892380D01*
X125706285Y-91892380D01*
X117514666Y-99417142D02*
X117562285Y-99464761D01*
X117705142Y-99512380D01*
X117800380Y-99512380D01*
X117943238Y-99464761D01*
X118038476Y-99369523D01*
X118086095Y-99274285D01*
X118133714Y-99083809D01*
X118133714Y-98940952D01*
X118086095Y-98750476D01*
X118038476Y-98655238D01*
X117943238Y-98560000D01*
X117800380Y-98512380D01*
X117705142Y-98512380D01*
X117562285Y-98560000D01*
X117514666Y-98607619D01*
X117181333Y-98512380D02*
X116562285Y-98512380D01*
X116895619Y-98893333D01*
X116752761Y-98893333D01*
X116657523Y-98940952D01*
X116609904Y-98988571D01*
X116562285Y-99083809D01*
X116562285Y-99321904D01*
X116609904Y-99417142D01*
X116657523Y-99464761D01*
X116752761Y-99512380D01*
X117038476Y-99512380D01*
X117133714Y-99464761D01*
X117181333Y-99417142D01*
X124293095Y-65552380D02*
X124293095Y-64552380D01*
X124055000Y-64552380D01*
X123912142Y-64600000D01*
X123816904Y-64695238D01*
X123769285Y-64790476D01*
X123721666Y-64980952D01*
X123721666Y-65123809D01*
X123769285Y-65314285D01*
X123816904Y-65409523D01*
X123912142Y-65504761D01*
X124055000Y-65552380D01*
X124293095Y-65552380D01*
X122769285Y-65552380D02*
X123340714Y-65552380D01*
X123055000Y-65552380D02*
X123055000Y-64552380D01*
X123150238Y-64695238D01*
X123245476Y-64790476D01*
X123340714Y-64838095D01*
X131667238Y-91987619D02*
X131762476Y-91940000D01*
X131857714Y-91844761D01*
X132000571Y-91701904D01*
X132095809Y-91654285D01*
X132191047Y-91654285D01*
X132143428Y-91892380D02*
X132238666Y-91844761D01*
X132333904Y-91749523D01*
X132381523Y-91559047D01*
X132381523Y-91225714D01*
X132333904Y-91035238D01*
X132238666Y-90940000D01*
X132143428Y-90892380D01*
X131952952Y-90892380D01*
X131857714Y-90940000D01*
X131762476Y-91035238D01*
X131714857Y-91225714D01*
X131714857Y-91559047D01*
X131762476Y-91749523D01*
X131857714Y-91844761D01*
X131952952Y-91892380D01*
X132143428Y-91892380D01*
X130762476Y-91892380D02*
X131333904Y-91892380D01*
X131048190Y-91892380D02*
X131048190Y-90892380D01*
X131143428Y-91035238D01*
X131238666Y-91130476D01*
X131333904Y-91178095D01*
X147095238Y-74547619D02*
X147190476Y-74500000D01*
X147285714Y-74404761D01*
X147428571Y-74261904D01*
X147523809Y-74214285D01*
X147619047Y-74214285D01*
X147571428Y-74452380D02*
X147666666Y-74404761D01*
X147761904Y-74309523D01*
X147809523Y-74119047D01*
X147809523Y-73785714D01*
X147761904Y-73595238D01*
X147666666Y-73500000D01*
X147571428Y-73452380D01*
X147380952Y-73452380D01*
X147285714Y-73500000D01*
X147190476Y-73595238D01*
X147142857Y-73785714D01*
X147142857Y-74119047D01*
X147190476Y-74309523D01*
X147285714Y-74404761D01*
X147380952Y-74452380D01*
X147571428Y-74452380D01*
X146761904Y-73547619D02*
X146714285Y-73500000D01*
X146619047Y-73452380D01*
X146380952Y-73452380D01*
X146285714Y-73500000D01*
X146238095Y-73547619D01*
X146190476Y-73642857D01*
X146190476Y-73738095D01*
X146238095Y-73880952D01*
X146809523Y-74452380D01*
X146190476Y-74452380D01*
X127166666Y-99512380D02*
X127500000Y-99036190D01*
X127738095Y-99512380D02*
X127738095Y-98512380D01*
X127357142Y-98512380D01*
X127261904Y-98560000D01*
X127214285Y-98607619D01*
X127166666Y-98702857D01*
X127166666Y-98845714D01*
X127214285Y-98940952D01*
X127261904Y-98988571D01*
X127357142Y-99036190D01*
X127738095Y-99036190D01*
X126214285Y-99512380D02*
X126785714Y-99512380D01*
X126500000Y-99512380D02*
X126500000Y-98512380D01*
X126595238Y-98655238D01*
X126690476Y-98750476D01*
X126785714Y-98798095D01*
X124626666Y-99512380D02*
X124960000Y-99036190D01*
X125198095Y-99512380D02*
X125198095Y-98512380D01*
X124817142Y-98512380D01*
X124721904Y-98560000D01*
X124674285Y-98607619D01*
X124626666Y-98702857D01*
X124626666Y-98845714D01*
X124674285Y-98940952D01*
X124721904Y-98988571D01*
X124817142Y-99036190D01*
X125198095Y-99036190D01*
X124245714Y-98607619D02*
X124198095Y-98560000D01*
X124102857Y-98512380D01*
X123864761Y-98512380D01*
X123769523Y-98560000D01*
X123721904Y-98607619D01*
X123674285Y-98702857D01*
X123674285Y-98798095D01*
X123721904Y-98940952D01*
X124293333Y-99512380D01*
X123674285Y-99512380D01*
X122086666Y-99512380D02*
X122420000Y-99036190D01*
X122658095Y-99512380D02*
X122658095Y-98512380D01*
X122277142Y-98512380D01*
X122181904Y-98560000D01*
X122134285Y-98607619D01*
X122086666Y-98702857D01*
X122086666Y-98845714D01*
X122134285Y-98940952D01*
X122181904Y-98988571D01*
X122277142Y-99036190D01*
X122658095Y-99036190D01*
X121753333Y-98512380D02*
X121134285Y-98512380D01*
X121467619Y-98893333D01*
X121324761Y-98893333D01*
X121229523Y-98940952D01*
X121181904Y-98988571D01*
X121134285Y-99083809D01*
X121134285Y-99321904D01*
X121181904Y-99417142D01*
X121229523Y-99464761D01*
X121324761Y-99512380D01*
X121610476Y-99512380D01*
X121705714Y-99464761D01*
X121753333Y-99417142D01*
X120054666Y-99512380D02*
X120388000Y-99036190D01*
X120626095Y-99512380D02*
X120626095Y-98512380D01*
X120245142Y-98512380D01*
X120149904Y-98560000D01*
X120102285Y-98607619D01*
X120054666Y-98702857D01*
X120054666Y-98845714D01*
X120102285Y-98940952D01*
X120149904Y-98988571D01*
X120245142Y-99036190D01*
X120626095Y-99036190D01*
X119197523Y-98845714D02*
X119197523Y-99512380D01*
X119435619Y-98464761D02*
X119673714Y-99179047D01*
X119054666Y-99179047D01*
X129198666Y-100020380D02*
X129532000Y-99544190D01*
X129770095Y-100020380D02*
X129770095Y-99020380D01*
X129389142Y-99020380D01*
X129293904Y-99068000D01*
X129246285Y-99115619D01*
X129198666Y-99210857D01*
X129198666Y-99353714D01*
X129246285Y-99448952D01*
X129293904Y-99496571D01*
X129389142Y-99544190D01*
X129770095Y-99544190D01*
X128341523Y-99020380D02*
X128532000Y-99020380D01*
X128627238Y-99068000D01*
X128674857Y-99115619D01*
X128770095Y-99258476D01*
X128817714Y-99448952D01*
X128817714Y-99829904D01*
X128770095Y-99925142D01*
X128722476Y-99972761D01*
X128627238Y-100020380D01*
X128436761Y-100020380D01*
X128341523Y-99972761D01*
X128293904Y-99925142D01*
X128246285Y-99829904D01*
X128246285Y-99591809D01*
X128293904Y-99496571D01*
X128341523Y-99448952D01*
X128436761Y-99401333D01*
X128627238Y-99401333D01*
X128722476Y-99448952D01*
X128770095Y-99496571D01*
X128817714Y-99591809D01*
X146756380Y-79833333D02*
X146280190Y-79500000D01*
X146756380Y-79261904D02*
X145756380Y-79261904D01*
X145756380Y-79642857D01*
X145804000Y-79738095D01*
X145851619Y-79785714D01*
X145946857Y-79833333D01*
X146089714Y-79833333D01*
X146184952Y-79785714D01*
X146232571Y-79738095D01*
X146280190Y-79642857D01*
X146280190Y-79261904D01*
X145756380Y-80166666D02*
X145756380Y-80833333D01*
X146756380Y-80404761D01*
X128690666Y-91892380D02*
X129024000Y-91416190D01*
X129262095Y-91892380D02*
X129262095Y-90892380D01*
X128881142Y-90892380D01*
X128785904Y-90940000D01*
X128738285Y-90987619D01*
X128690666Y-91082857D01*
X128690666Y-91225714D01*
X128738285Y-91320952D01*
X128785904Y-91368571D01*
X128881142Y-91416190D01*
X129262095Y-91416190D01*
X128214476Y-91892380D02*
X128024000Y-91892380D01*
X127928761Y-91844761D01*
X127881142Y-91797142D01*
X127785904Y-91654285D01*
X127738285Y-91463809D01*
X127738285Y-91082857D01*
X127785904Y-90987619D01*
X127833523Y-90940000D01*
X127928761Y-90892380D01*
X128119238Y-90892380D01*
X128214476Y-90940000D01*
X128262095Y-90987619D01*
X128309714Y-91082857D01*
X128309714Y-91320952D01*
X128262095Y-91416190D01*
X128214476Y-91463809D01*
X128119238Y-91511428D01*
X127928761Y-91511428D01*
X127833523Y-91463809D01*
X127785904Y-91416190D01*
X127738285Y-91320952D01*
X122173904Y-84796380D02*
X122173904Y-85605904D01*
X122126285Y-85701142D01*
X122078666Y-85748761D01*
X121983428Y-85796380D01*
X121792952Y-85796380D01*
X121697714Y-85748761D01*
X121650095Y-85701142D01*
X121602476Y-85605904D01*
X121602476Y-84796380D01*
X120602476Y-85796380D02*
X121173904Y-85796380D01*
X120888190Y-85796380D02*
X120888190Y-84796380D01*
X120983428Y-84939238D01*
X121078666Y-85034476D01*
X121173904Y-85082095D01*
M02*
