G04 #@! TF.GenerationSoftware,KiCad,Pcbnew,no-vcs-found*
G04 #@! TF.CreationDate,2016-12-05T19:06:41+01:00*
G04 #@! TF.ProjectId,relayboard,72656C6179626F6172642E6B69636164,rev?*
G04 #@! TF.FileFunction,Copper,L1,Top,Signal*
G04 #@! TF.FilePolarity,Positive*
%FSLAX46Y46*%
G04 Gerber Fmt 4.6, Leading zero omitted, Abs format (unit mm)*
G04 Created by KiCad (PCBNEW no-vcs-found) date Mon Dec  5 19:06:41 2016*
%MOMM*%
%LPD*%
G01*
G04 APERTURE LIST*
%ADD10C,0.100000*%
%ADD11O,1.360000X1.600000*%
%ADD12R,1.360000X1.600000*%
%ADD13R,3.290000X3.290000*%
%ADD14C,1.501140*%
%ADD15R,1.501140X1.501140*%
%ADD16C,3.649980*%
%ADD17C,2.500000*%
%ADD18C,3.000000*%
%ADD19O,3.962400X1.981200*%
%ADD20C,1.800000*%
%ADD21C,0.800000*%
%ADD22C,0.250000*%
%ADD23C,0.500000*%
%ADD24C,0.254000*%
G04 APERTURE END LIST*
D10*
D11*
X134000000Y-84000000D03*
X136000000Y-84000000D03*
X138000000Y-84000000D03*
X140000000Y-84000000D03*
X142000000Y-84000000D03*
X144000000Y-84000000D03*
X146000000Y-84000000D03*
X148000000Y-84000000D03*
X150000000Y-84000000D03*
D12*
X152000000Y-84000000D03*
X152000000Y-62000000D03*
D11*
X150000000Y-62000000D03*
X148000000Y-62000000D03*
X146000000Y-62000000D03*
X144000000Y-62000000D03*
X142000000Y-62000000D03*
X140000000Y-62000000D03*
X138000000Y-62000000D03*
X136000000Y-62000000D03*
X134000000Y-62000000D03*
D13*
X134515000Y-101750000D03*
X165485000Y-101750000D03*
D14*
X114390000Y-76695000D03*
X111850000Y-75425000D03*
X114390000Y-74155000D03*
X111850000Y-72885000D03*
X114390000Y-71615000D03*
X111850000Y-70345000D03*
X114390000Y-69075000D03*
D15*
X111850000Y-67805000D03*
D16*
X105500000Y-66319100D03*
X105500000Y-78188520D03*
D17*
X117500000Y-61750000D03*
D18*
X117500000Y-73950000D03*
X129500000Y-73950000D03*
D17*
X129500000Y-61750000D03*
D18*
X123500000Y-59750000D03*
D19*
X104000000Y-105000000D03*
X104000000Y-100000000D03*
D20*
X118690000Y-111960000D03*
X123690000Y-111960000D03*
X113490000Y-82560000D03*
X128890000Y-82560000D03*
D19*
X104000000Y-93750000D03*
X104000000Y-88750000D03*
X104000000Y-83750000D03*
D21*
X134600000Y-97700000D03*
X137700000Y-75400000D03*
X134400000Y-81700000D03*
X146000000Y-78000000D03*
X154100000Y-77700000D03*
X112300000Y-87400000D03*
X117000000Y-102200000D03*
X126300000Y-92100000D03*
X128600000Y-92100000D03*
X124400000Y-93900000D03*
X116500000Y-94200000D03*
X116400000Y-76400000D03*
D22*
X115100000Y-94800000D02*
X115200000Y-94800000D01*
X115100000Y-94700000D02*
X115100000Y-94800000D01*
X134600000Y-97700000D02*
X134600000Y-101665000D01*
X134600000Y-101665000D02*
X134515000Y-101750000D01*
X116400000Y-76400000D02*
X114390000Y-74390000D01*
X114390000Y-74390000D02*
X114390000Y-74155000D01*
D23*
X104000000Y-93750000D02*
X101518800Y-93750000D01*
X101518800Y-93750000D02*
X99500000Y-91731200D01*
X99500000Y-91731200D02*
X99500000Y-81750000D01*
X107736489Y-80513511D02*
X109500000Y-78750000D01*
X109500000Y-78750000D02*
X115500000Y-78750000D01*
X99500000Y-81750000D02*
X100736489Y-80513511D01*
X100736489Y-80513511D02*
X107736489Y-80513511D01*
X115500000Y-78750000D02*
X117500000Y-76750000D01*
X117500000Y-76750000D02*
X117500000Y-73950000D01*
X118700000Y-84750000D02*
X129500000Y-73950000D01*
X111500000Y-84750000D02*
X118700000Y-84750000D01*
X107500000Y-88750000D02*
X111500000Y-84750000D01*
X104000000Y-88750000D02*
X107500000Y-88750000D01*
X119569998Y-80000000D02*
X123500000Y-76069998D01*
X110900676Y-81099324D02*
X112000000Y-80000000D01*
X112000000Y-80000000D02*
X119569998Y-80000000D01*
X110900676Y-81159999D02*
X110900676Y-81099324D01*
X123500000Y-61871320D02*
X123500000Y-59750000D01*
X123500000Y-76069998D02*
X123500000Y-61871320D01*
X108310675Y-83750000D02*
X110900676Y-81159999D01*
X104000000Y-83750000D02*
X108310675Y-83750000D01*
D22*
X104000000Y-105000000D02*
X104990600Y-105000000D01*
X104990600Y-105000000D02*
X111950600Y-111960000D01*
X111950600Y-111960000D02*
X118690000Y-111960000D01*
X114200000Y-107968800D02*
X119698800Y-107968800D01*
X119698800Y-107968800D02*
X123690000Y-111960000D01*
X104000000Y-100000000D02*
X106231200Y-100000000D01*
X106231200Y-100000000D02*
X114200000Y-107968800D01*
D24*
G36*
X168172417Y-103972769D02*
X167397858Y-103971368D01*
X167489698Y-103933327D01*
X167668327Y-103754699D01*
X167765000Y-103521310D01*
X167765000Y-102035750D01*
X167606250Y-101877000D01*
X165612000Y-101877000D01*
X165612000Y-101897000D01*
X165358000Y-101897000D01*
X165358000Y-101877000D01*
X163363750Y-101877000D01*
X163205000Y-102035750D01*
X163205000Y-103521310D01*
X163301673Y-103754699D01*
X163480302Y-103933327D01*
X163555367Y-103964420D01*
X136523929Y-103915538D01*
X136617809Y-103852809D01*
X136758157Y-103642765D01*
X136807440Y-103395000D01*
X136807440Y-100105000D01*
X136782316Y-99978690D01*
X163205000Y-99978690D01*
X163205000Y-101464250D01*
X163363750Y-101623000D01*
X165358000Y-101623000D01*
X165358000Y-99628750D01*
X165612000Y-99628750D01*
X165612000Y-101623000D01*
X167606250Y-101623000D01*
X167765000Y-101464250D01*
X167765000Y-99978690D01*
X167668327Y-99745301D01*
X167489698Y-99566673D01*
X167256309Y-99470000D01*
X165770750Y-99470000D01*
X165612000Y-99628750D01*
X165358000Y-99628750D01*
X165199250Y-99470000D01*
X163713691Y-99470000D01*
X163480302Y-99566673D01*
X163301673Y-99745301D01*
X163205000Y-99978690D01*
X136782316Y-99978690D01*
X136758157Y-99857235D01*
X136617809Y-99647191D01*
X136407765Y-99506843D01*
X136160000Y-99457560D01*
X135360000Y-99457560D01*
X135360000Y-98403761D01*
X135476919Y-98287046D01*
X135634820Y-97906777D01*
X135635179Y-97495029D01*
X135477942Y-97114485D01*
X135187046Y-96823081D01*
X134806777Y-96665180D01*
X134395029Y-96664821D01*
X134014485Y-96822058D01*
X133723081Y-97112954D01*
X133565180Y-97493223D01*
X133564821Y-97904971D01*
X133722058Y-98285515D01*
X133840000Y-98403663D01*
X133840000Y-99457560D01*
X132870000Y-99457560D01*
X132622235Y-99506843D01*
X132412191Y-99647191D01*
X132271843Y-99857235D01*
X132222560Y-100105000D01*
X132222560Y-103395000D01*
X132271843Y-103642765D01*
X132412191Y-103852809D01*
X132495168Y-103908253D01*
X113038556Y-103873069D01*
X111326584Y-102731755D01*
X111227722Y-86617230D01*
X122410083Y-85726599D01*
X122457763Y-85713104D01*
X122488776Y-85690817D01*
X124586575Y-83640159D01*
X127989446Y-83640159D01*
X128075852Y-83896643D01*
X128649336Y-84106458D01*
X129259460Y-84080839D01*
X129704148Y-83896643D01*
X129719225Y-83851887D01*
X132685000Y-83851887D01*
X132685000Y-84148113D01*
X132785098Y-84651342D01*
X133070155Y-85077958D01*
X133496771Y-85363015D01*
X134000000Y-85463113D01*
X134503229Y-85363015D01*
X134929845Y-85077958D01*
X135000000Y-84972964D01*
X135070155Y-85077958D01*
X135496771Y-85363015D01*
X136000000Y-85463113D01*
X136503229Y-85363015D01*
X136929845Y-85077958D01*
X137000000Y-84972964D01*
X137070155Y-85077958D01*
X137496771Y-85363015D01*
X138000000Y-85463113D01*
X138503229Y-85363015D01*
X138929845Y-85077958D01*
X139000000Y-84972964D01*
X139070155Y-85077958D01*
X139496771Y-85363015D01*
X140000000Y-85463113D01*
X140503229Y-85363015D01*
X140929845Y-85077958D01*
X141000000Y-84972964D01*
X141070155Y-85077958D01*
X141496771Y-85363015D01*
X142000000Y-85463113D01*
X142503229Y-85363015D01*
X142929845Y-85077958D01*
X143000000Y-84972964D01*
X143070155Y-85077958D01*
X143496771Y-85363015D01*
X144000000Y-85463113D01*
X144503229Y-85363015D01*
X144929845Y-85077958D01*
X145000000Y-84972964D01*
X145070155Y-85077958D01*
X145496771Y-85363015D01*
X146000000Y-85463113D01*
X146503229Y-85363015D01*
X146929845Y-85077958D01*
X147000000Y-84972964D01*
X147070155Y-85077958D01*
X147496771Y-85363015D01*
X148000000Y-85463113D01*
X148503229Y-85363015D01*
X148929845Y-85077958D01*
X149000000Y-84972964D01*
X149070155Y-85077958D01*
X149496771Y-85363015D01*
X150000000Y-85463113D01*
X150503229Y-85363015D01*
X150799992Y-85164723D01*
X150862191Y-85257809D01*
X151072235Y-85398157D01*
X151320000Y-85447440D01*
X152680000Y-85447440D01*
X152927765Y-85398157D01*
X153137809Y-85257809D01*
X153278157Y-85047765D01*
X153327440Y-84800000D01*
X153327440Y-83200000D01*
X153278157Y-82952235D01*
X153137809Y-82742191D01*
X152927765Y-82601843D01*
X152680000Y-82552560D01*
X151320000Y-82552560D01*
X151072235Y-82601843D01*
X150862191Y-82742191D01*
X150799992Y-82835277D01*
X150503229Y-82636985D01*
X150000000Y-82536887D01*
X149496771Y-82636985D01*
X149070155Y-82922042D01*
X149000000Y-83027036D01*
X148929845Y-82922042D01*
X148503229Y-82636985D01*
X148000000Y-82536887D01*
X147496771Y-82636985D01*
X147070155Y-82922042D01*
X147000000Y-83027036D01*
X146929845Y-82922042D01*
X146503229Y-82636985D01*
X146000000Y-82536887D01*
X145496771Y-82636985D01*
X145070155Y-82922042D01*
X145000000Y-83027036D01*
X144929845Y-82922042D01*
X144503229Y-82636985D01*
X144000000Y-82536887D01*
X143496771Y-82636985D01*
X143070155Y-82922042D01*
X143000000Y-83027036D01*
X142929845Y-82922042D01*
X142503229Y-82636985D01*
X142000000Y-82536887D01*
X141496771Y-82636985D01*
X141070155Y-82922042D01*
X141000000Y-83027036D01*
X140929845Y-82922042D01*
X140503229Y-82636985D01*
X140000000Y-82536887D01*
X139496771Y-82636985D01*
X139070155Y-82922042D01*
X139000000Y-83027036D01*
X138929845Y-82922042D01*
X138503229Y-82636985D01*
X138000000Y-82536887D01*
X137496771Y-82636985D01*
X137070155Y-82922042D01*
X137000000Y-83027036D01*
X136929845Y-82922042D01*
X136503229Y-82636985D01*
X136000000Y-82536887D01*
X135496771Y-82636985D01*
X135070155Y-82922042D01*
X135000000Y-83027036D01*
X134929845Y-82922042D01*
X134503229Y-82636985D01*
X134000000Y-82536887D01*
X133496771Y-82636985D01*
X133070155Y-82922042D01*
X132785098Y-83348658D01*
X132685000Y-83851887D01*
X129719225Y-83851887D01*
X129790554Y-83640159D01*
X128890000Y-82739605D01*
X127989446Y-83640159D01*
X124586575Y-83640159D01*
X125937762Y-82319336D01*
X127343542Y-82319336D01*
X127369161Y-82929460D01*
X127553357Y-83374148D01*
X127809841Y-83460554D01*
X128710395Y-82560000D01*
X129069605Y-82560000D01*
X129970159Y-83460554D01*
X130226643Y-83374148D01*
X130436458Y-82800664D01*
X130410839Y-82190540D01*
X130226643Y-81745852D01*
X129970159Y-81659446D01*
X129069605Y-82560000D01*
X128710395Y-82560000D01*
X127809841Y-81659446D01*
X127553357Y-81745852D01*
X127343542Y-82319336D01*
X125937762Y-82319336D01*
X126796555Y-81479841D01*
X127989446Y-81479841D01*
X128890000Y-82380395D01*
X129790554Y-81479841D01*
X129704148Y-81223357D01*
X129130664Y-81013542D01*
X128520540Y-81039161D01*
X128075852Y-81223357D01*
X127989446Y-81479841D01*
X126796555Y-81479841D01*
X131388776Y-76990817D01*
X131416773Y-76949931D01*
X131426942Y-76903824D01*
X131492775Y-74718160D01*
X131634628Y-74376541D01*
X131635370Y-73527185D01*
X131535899Y-73286448D01*
X131865835Y-62332572D01*
X132702618Y-62332572D01*
X132882723Y-62812878D01*
X133232924Y-63187699D01*
X133669814Y-63392872D01*
X133873000Y-63269254D01*
X133873000Y-62127000D01*
X132844087Y-62127000D01*
X132702618Y-62332572D01*
X131865835Y-62332572D01*
X131885869Y-61667428D01*
X132702618Y-61667428D01*
X132844087Y-61873000D01*
X133873000Y-61873000D01*
X133873000Y-60730746D01*
X134127000Y-60730746D01*
X134127000Y-61873000D01*
X134147000Y-61873000D01*
X134147000Y-62127000D01*
X134127000Y-62127000D01*
X134127000Y-63269254D01*
X134330186Y-63392872D01*
X134767076Y-63187699D01*
X134986535Y-62952812D01*
X135070155Y-63077958D01*
X135496771Y-63363015D01*
X136000000Y-63463113D01*
X136503229Y-63363015D01*
X136929845Y-63077958D01*
X137000000Y-62972964D01*
X137070155Y-63077958D01*
X137496771Y-63363015D01*
X138000000Y-63463113D01*
X138503229Y-63363015D01*
X138929845Y-63077958D01*
X139000000Y-62972964D01*
X139070155Y-63077958D01*
X139496771Y-63363015D01*
X140000000Y-63463113D01*
X140503229Y-63363015D01*
X140929845Y-63077958D01*
X141000000Y-62972964D01*
X141070155Y-63077958D01*
X141496771Y-63363015D01*
X142000000Y-63463113D01*
X142503229Y-63363015D01*
X142929845Y-63077958D01*
X143000000Y-62972964D01*
X143070155Y-63077958D01*
X143496771Y-63363015D01*
X144000000Y-63463113D01*
X144503229Y-63363015D01*
X144929845Y-63077958D01*
X145000000Y-62972964D01*
X145070155Y-63077958D01*
X145496771Y-63363015D01*
X146000000Y-63463113D01*
X146503229Y-63363015D01*
X146929845Y-63077958D01*
X147000000Y-62972964D01*
X147070155Y-63077958D01*
X147496771Y-63363015D01*
X148000000Y-63463113D01*
X148503229Y-63363015D01*
X148929845Y-63077958D01*
X149000000Y-62972964D01*
X149070155Y-63077958D01*
X149496771Y-63363015D01*
X150000000Y-63463113D01*
X150503229Y-63363015D01*
X150799992Y-63164723D01*
X150862191Y-63257809D01*
X151072235Y-63398157D01*
X151320000Y-63447440D01*
X152680000Y-63447440D01*
X152927765Y-63398157D01*
X153137809Y-63257809D01*
X153278157Y-63047765D01*
X153327440Y-62800000D01*
X153327440Y-61200000D01*
X153278157Y-60952235D01*
X153137809Y-60742191D01*
X152927765Y-60601843D01*
X152680000Y-60552560D01*
X151320000Y-60552560D01*
X151072235Y-60601843D01*
X150862191Y-60742191D01*
X150799992Y-60835277D01*
X150503229Y-60636985D01*
X150000000Y-60536887D01*
X149496771Y-60636985D01*
X149070155Y-60922042D01*
X149000000Y-61027036D01*
X148929845Y-60922042D01*
X148503229Y-60636985D01*
X148000000Y-60536887D01*
X147496771Y-60636985D01*
X147070155Y-60922042D01*
X147000000Y-61027036D01*
X146929845Y-60922042D01*
X146503229Y-60636985D01*
X146000000Y-60536887D01*
X145496771Y-60636985D01*
X145070155Y-60922042D01*
X145000000Y-61027036D01*
X144929845Y-60922042D01*
X144503229Y-60636985D01*
X144000000Y-60536887D01*
X143496771Y-60636985D01*
X143070155Y-60922042D01*
X143000000Y-61027036D01*
X142929845Y-60922042D01*
X142503229Y-60636985D01*
X142000000Y-60536887D01*
X141496771Y-60636985D01*
X141070155Y-60922042D01*
X141000000Y-61027036D01*
X140929845Y-60922042D01*
X140503229Y-60636985D01*
X140000000Y-60536887D01*
X139496771Y-60636985D01*
X139070155Y-60922042D01*
X139000000Y-61027036D01*
X138929845Y-60922042D01*
X138503229Y-60636985D01*
X138000000Y-60536887D01*
X137496771Y-60636985D01*
X137070155Y-60922042D01*
X137000000Y-61027036D01*
X136929845Y-60922042D01*
X136503229Y-60636985D01*
X136000000Y-60536887D01*
X135496771Y-60636985D01*
X135070155Y-60922042D01*
X134986535Y-61047188D01*
X134767076Y-60812301D01*
X134330186Y-60607128D01*
X134127000Y-60730746D01*
X133873000Y-60730746D01*
X133669814Y-60607128D01*
X133232924Y-60812301D01*
X132882723Y-61187122D01*
X132702618Y-61667428D01*
X131885869Y-61667428D01*
X131923232Y-60427000D01*
X167973578Y-60427000D01*
X168172417Y-103972769D01*
X168172417Y-103972769D01*
G37*
X168172417Y-103972769D02*
X167397858Y-103971368D01*
X167489698Y-103933327D01*
X167668327Y-103754699D01*
X167765000Y-103521310D01*
X167765000Y-102035750D01*
X167606250Y-101877000D01*
X165612000Y-101877000D01*
X165612000Y-101897000D01*
X165358000Y-101897000D01*
X165358000Y-101877000D01*
X163363750Y-101877000D01*
X163205000Y-102035750D01*
X163205000Y-103521310D01*
X163301673Y-103754699D01*
X163480302Y-103933327D01*
X163555367Y-103964420D01*
X136523929Y-103915538D01*
X136617809Y-103852809D01*
X136758157Y-103642765D01*
X136807440Y-103395000D01*
X136807440Y-100105000D01*
X136782316Y-99978690D01*
X163205000Y-99978690D01*
X163205000Y-101464250D01*
X163363750Y-101623000D01*
X165358000Y-101623000D01*
X165358000Y-99628750D01*
X165612000Y-99628750D01*
X165612000Y-101623000D01*
X167606250Y-101623000D01*
X167765000Y-101464250D01*
X167765000Y-99978690D01*
X167668327Y-99745301D01*
X167489698Y-99566673D01*
X167256309Y-99470000D01*
X165770750Y-99470000D01*
X165612000Y-99628750D01*
X165358000Y-99628750D01*
X165199250Y-99470000D01*
X163713691Y-99470000D01*
X163480302Y-99566673D01*
X163301673Y-99745301D01*
X163205000Y-99978690D01*
X136782316Y-99978690D01*
X136758157Y-99857235D01*
X136617809Y-99647191D01*
X136407765Y-99506843D01*
X136160000Y-99457560D01*
X135360000Y-99457560D01*
X135360000Y-98403761D01*
X135476919Y-98287046D01*
X135634820Y-97906777D01*
X135635179Y-97495029D01*
X135477942Y-97114485D01*
X135187046Y-96823081D01*
X134806777Y-96665180D01*
X134395029Y-96664821D01*
X134014485Y-96822058D01*
X133723081Y-97112954D01*
X133565180Y-97493223D01*
X133564821Y-97904971D01*
X133722058Y-98285515D01*
X133840000Y-98403663D01*
X133840000Y-99457560D01*
X132870000Y-99457560D01*
X132622235Y-99506843D01*
X132412191Y-99647191D01*
X132271843Y-99857235D01*
X132222560Y-100105000D01*
X132222560Y-103395000D01*
X132271843Y-103642765D01*
X132412191Y-103852809D01*
X132495168Y-103908253D01*
X113038556Y-103873069D01*
X111326584Y-102731755D01*
X111227722Y-86617230D01*
X122410083Y-85726599D01*
X122457763Y-85713104D01*
X122488776Y-85690817D01*
X124586575Y-83640159D01*
X127989446Y-83640159D01*
X128075852Y-83896643D01*
X128649336Y-84106458D01*
X129259460Y-84080839D01*
X129704148Y-83896643D01*
X129719225Y-83851887D01*
X132685000Y-83851887D01*
X132685000Y-84148113D01*
X132785098Y-84651342D01*
X133070155Y-85077958D01*
X133496771Y-85363015D01*
X134000000Y-85463113D01*
X134503229Y-85363015D01*
X134929845Y-85077958D01*
X135000000Y-84972964D01*
X135070155Y-85077958D01*
X135496771Y-85363015D01*
X136000000Y-85463113D01*
X136503229Y-85363015D01*
X136929845Y-85077958D01*
X137000000Y-84972964D01*
X137070155Y-85077958D01*
X137496771Y-85363015D01*
X138000000Y-85463113D01*
X138503229Y-85363015D01*
X138929845Y-85077958D01*
X139000000Y-84972964D01*
X139070155Y-85077958D01*
X139496771Y-85363015D01*
X140000000Y-85463113D01*
X140503229Y-85363015D01*
X140929845Y-85077958D01*
X141000000Y-84972964D01*
X141070155Y-85077958D01*
X141496771Y-85363015D01*
X142000000Y-85463113D01*
X142503229Y-85363015D01*
X142929845Y-85077958D01*
X143000000Y-84972964D01*
X143070155Y-85077958D01*
X143496771Y-85363015D01*
X144000000Y-85463113D01*
X144503229Y-85363015D01*
X144929845Y-85077958D01*
X145000000Y-84972964D01*
X145070155Y-85077958D01*
X145496771Y-85363015D01*
X146000000Y-85463113D01*
X146503229Y-85363015D01*
X146929845Y-85077958D01*
X147000000Y-84972964D01*
X147070155Y-85077958D01*
X147496771Y-85363015D01*
X148000000Y-85463113D01*
X148503229Y-85363015D01*
X148929845Y-85077958D01*
X149000000Y-84972964D01*
X149070155Y-85077958D01*
X149496771Y-85363015D01*
X150000000Y-85463113D01*
X150503229Y-85363015D01*
X150799992Y-85164723D01*
X150862191Y-85257809D01*
X151072235Y-85398157D01*
X151320000Y-85447440D01*
X152680000Y-85447440D01*
X152927765Y-85398157D01*
X153137809Y-85257809D01*
X153278157Y-85047765D01*
X153327440Y-84800000D01*
X153327440Y-83200000D01*
X153278157Y-82952235D01*
X153137809Y-82742191D01*
X152927765Y-82601843D01*
X152680000Y-82552560D01*
X151320000Y-82552560D01*
X151072235Y-82601843D01*
X150862191Y-82742191D01*
X150799992Y-82835277D01*
X150503229Y-82636985D01*
X150000000Y-82536887D01*
X149496771Y-82636985D01*
X149070155Y-82922042D01*
X149000000Y-83027036D01*
X148929845Y-82922042D01*
X148503229Y-82636985D01*
X148000000Y-82536887D01*
X147496771Y-82636985D01*
X147070155Y-82922042D01*
X147000000Y-83027036D01*
X146929845Y-82922042D01*
X146503229Y-82636985D01*
X146000000Y-82536887D01*
X145496771Y-82636985D01*
X145070155Y-82922042D01*
X145000000Y-83027036D01*
X144929845Y-82922042D01*
X144503229Y-82636985D01*
X144000000Y-82536887D01*
X143496771Y-82636985D01*
X143070155Y-82922042D01*
X143000000Y-83027036D01*
X142929845Y-82922042D01*
X142503229Y-82636985D01*
X142000000Y-82536887D01*
X141496771Y-82636985D01*
X141070155Y-82922042D01*
X141000000Y-83027036D01*
X140929845Y-82922042D01*
X140503229Y-82636985D01*
X140000000Y-82536887D01*
X139496771Y-82636985D01*
X139070155Y-82922042D01*
X139000000Y-83027036D01*
X138929845Y-82922042D01*
X138503229Y-82636985D01*
X138000000Y-82536887D01*
X137496771Y-82636985D01*
X137070155Y-82922042D01*
X137000000Y-83027036D01*
X136929845Y-82922042D01*
X136503229Y-82636985D01*
X136000000Y-82536887D01*
X135496771Y-82636985D01*
X135070155Y-82922042D01*
X135000000Y-83027036D01*
X134929845Y-82922042D01*
X134503229Y-82636985D01*
X134000000Y-82536887D01*
X133496771Y-82636985D01*
X133070155Y-82922042D01*
X132785098Y-83348658D01*
X132685000Y-83851887D01*
X129719225Y-83851887D01*
X129790554Y-83640159D01*
X128890000Y-82739605D01*
X127989446Y-83640159D01*
X124586575Y-83640159D01*
X125937762Y-82319336D01*
X127343542Y-82319336D01*
X127369161Y-82929460D01*
X127553357Y-83374148D01*
X127809841Y-83460554D01*
X128710395Y-82560000D01*
X129069605Y-82560000D01*
X129970159Y-83460554D01*
X130226643Y-83374148D01*
X130436458Y-82800664D01*
X130410839Y-82190540D01*
X130226643Y-81745852D01*
X129970159Y-81659446D01*
X129069605Y-82560000D01*
X128710395Y-82560000D01*
X127809841Y-81659446D01*
X127553357Y-81745852D01*
X127343542Y-82319336D01*
X125937762Y-82319336D01*
X126796555Y-81479841D01*
X127989446Y-81479841D01*
X128890000Y-82380395D01*
X129790554Y-81479841D01*
X129704148Y-81223357D01*
X129130664Y-81013542D01*
X128520540Y-81039161D01*
X128075852Y-81223357D01*
X127989446Y-81479841D01*
X126796555Y-81479841D01*
X131388776Y-76990817D01*
X131416773Y-76949931D01*
X131426942Y-76903824D01*
X131492775Y-74718160D01*
X131634628Y-74376541D01*
X131635370Y-73527185D01*
X131535899Y-73286448D01*
X131865835Y-62332572D01*
X132702618Y-62332572D01*
X132882723Y-62812878D01*
X133232924Y-63187699D01*
X133669814Y-63392872D01*
X133873000Y-63269254D01*
X133873000Y-62127000D01*
X132844087Y-62127000D01*
X132702618Y-62332572D01*
X131865835Y-62332572D01*
X131885869Y-61667428D01*
X132702618Y-61667428D01*
X132844087Y-61873000D01*
X133873000Y-61873000D01*
X133873000Y-60730746D01*
X134127000Y-60730746D01*
X134127000Y-61873000D01*
X134147000Y-61873000D01*
X134147000Y-62127000D01*
X134127000Y-62127000D01*
X134127000Y-63269254D01*
X134330186Y-63392872D01*
X134767076Y-63187699D01*
X134986535Y-62952812D01*
X135070155Y-63077958D01*
X135496771Y-63363015D01*
X136000000Y-63463113D01*
X136503229Y-63363015D01*
X136929845Y-63077958D01*
X137000000Y-62972964D01*
X137070155Y-63077958D01*
X137496771Y-63363015D01*
X138000000Y-63463113D01*
X138503229Y-63363015D01*
X138929845Y-63077958D01*
X139000000Y-62972964D01*
X139070155Y-63077958D01*
X139496771Y-63363015D01*
X140000000Y-63463113D01*
X140503229Y-63363015D01*
X140929845Y-63077958D01*
X141000000Y-62972964D01*
X141070155Y-63077958D01*
X141496771Y-63363015D01*
X142000000Y-63463113D01*
X142503229Y-63363015D01*
X142929845Y-63077958D01*
X143000000Y-62972964D01*
X143070155Y-63077958D01*
X143496771Y-63363015D01*
X144000000Y-63463113D01*
X144503229Y-63363015D01*
X144929845Y-63077958D01*
X145000000Y-62972964D01*
X145070155Y-63077958D01*
X145496771Y-63363015D01*
X146000000Y-63463113D01*
X146503229Y-63363015D01*
X146929845Y-63077958D01*
X147000000Y-62972964D01*
X147070155Y-63077958D01*
X147496771Y-63363015D01*
X148000000Y-63463113D01*
X148503229Y-63363015D01*
X148929845Y-63077958D01*
X149000000Y-62972964D01*
X149070155Y-63077958D01*
X149496771Y-63363015D01*
X150000000Y-63463113D01*
X150503229Y-63363015D01*
X150799992Y-63164723D01*
X150862191Y-63257809D01*
X151072235Y-63398157D01*
X151320000Y-63447440D01*
X152680000Y-63447440D01*
X152927765Y-63398157D01*
X153137809Y-63257809D01*
X153278157Y-63047765D01*
X153327440Y-62800000D01*
X153327440Y-61200000D01*
X153278157Y-60952235D01*
X153137809Y-60742191D01*
X152927765Y-60601843D01*
X152680000Y-60552560D01*
X151320000Y-60552560D01*
X151072235Y-60601843D01*
X150862191Y-60742191D01*
X150799992Y-60835277D01*
X150503229Y-60636985D01*
X150000000Y-60536887D01*
X149496771Y-60636985D01*
X149070155Y-60922042D01*
X149000000Y-61027036D01*
X148929845Y-60922042D01*
X148503229Y-60636985D01*
X148000000Y-60536887D01*
X147496771Y-60636985D01*
X147070155Y-60922042D01*
X147000000Y-61027036D01*
X146929845Y-60922042D01*
X146503229Y-60636985D01*
X146000000Y-60536887D01*
X145496771Y-60636985D01*
X145070155Y-60922042D01*
X145000000Y-61027036D01*
X144929845Y-60922042D01*
X144503229Y-60636985D01*
X144000000Y-60536887D01*
X143496771Y-60636985D01*
X143070155Y-60922042D01*
X143000000Y-61027036D01*
X142929845Y-60922042D01*
X142503229Y-60636985D01*
X142000000Y-60536887D01*
X141496771Y-60636985D01*
X141070155Y-60922042D01*
X141000000Y-61027036D01*
X140929845Y-60922042D01*
X140503229Y-60636985D01*
X140000000Y-60536887D01*
X139496771Y-60636985D01*
X139070155Y-60922042D01*
X139000000Y-61027036D01*
X138929845Y-60922042D01*
X138503229Y-60636985D01*
X138000000Y-60536887D01*
X137496771Y-60636985D01*
X137070155Y-60922042D01*
X137000000Y-61027036D01*
X136929845Y-60922042D01*
X136503229Y-60636985D01*
X136000000Y-60536887D01*
X135496771Y-60636985D01*
X135070155Y-60922042D01*
X134986535Y-61047188D01*
X134767076Y-60812301D01*
X134330186Y-60607128D01*
X134127000Y-60730746D01*
X133873000Y-60730746D01*
X133669814Y-60607128D01*
X133232924Y-60812301D01*
X132882723Y-61187122D01*
X132702618Y-61667428D01*
X131885869Y-61667428D01*
X131923232Y-60427000D01*
X167973578Y-60427000D01*
X168172417Y-103972769D01*
M02*
