G04 #@! TF.GenerationSoftware,KiCad,Pcbnew,no-vcs-found*
G04 #@! TF.CreationDate,2016-12-05T19:06:41+01:00*
G04 #@! TF.ProjectId,relayboard,72656C6179626F6172642E6B69636164,rev?*
G04 #@! TF.FileFunction,Soldermask,Top*
G04 #@! TF.FilePolarity,Negative*
%FSLAX46Y46*%
G04 Gerber Fmt 4.6, Leading zero omitted, Abs format (unit mm)*
G04 Created by KiCad (PCBNEW no-vcs-found) date Mon Dec  5 19:06:41 2016*
%MOMM*%
%LPD*%
G01*
G04 APERTURE LIST*
%ADD10C,0.100000*%
%ADD11C,2.600000*%
%ADD12O,1.760000X2.000000*%
%ADD13R,1.760000X2.000000*%
%ADD14R,3.690000X3.690000*%
%ADD15C,1.901140*%
%ADD16R,1.901140X1.901140*%
%ADD17C,4.049980*%
%ADD18C,2.900000*%
%ADD19C,3.400000*%
%ADD20O,4.362400X2.381200*%
%ADD21C,2.200000*%
G04 APERTURE END LIST*
D10*
D11*
X178709320Y-111323120D03*
X178709320Y-61528960D03*
X102356920Y-111323120D03*
X102356920Y-61528960D03*
D12*
X134000000Y-84000000D03*
X136000000Y-84000000D03*
X138000000Y-84000000D03*
X140000000Y-84000000D03*
X142000000Y-84000000D03*
X144000000Y-84000000D03*
X146000000Y-84000000D03*
X148000000Y-84000000D03*
X150000000Y-84000000D03*
D13*
X152000000Y-84000000D03*
X152000000Y-62000000D03*
D12*
X150000000Y-62000000D03*
X148000000Y-62000000D03*
X146000000Y-62000000D03*
X144000000Y-62000000D03*
X142000000Y-62000000D03*
X140000000Y-62000000D03*
X138000000Y-62000000D03*
X136000000Y-62000000D03*
X134000000Y-62000000D03*
D14*
X134515000Y-101750000D03*
X165485000Y-101750000D03*
D15*
X114390000Y-76695000D03*
X111850000Y-75425000D03*
X114390000Y-74155000D03*
X111850000Y-72885000D03*
X114390000Y-71615000D03*
X111850000Y-70345000D03*
X114390000Y-69075000D03*
D16*
X111850000Y-67805000D03*
D17*
X105500000Y-66319100D03*
X105500000Y-78188520D03*
D18*
X117500000Y-61750000D03*
D19*
X117500000Y-73950000D03*
X129500000Y-73950000D03*
D18*
X129500000Y-61750000D03*
D19*
X123500000Y-59750000D03*
D20*
X104000000Y-105000000D03*
X104000000Y-100000000D03*
D21*
X118690000Y-111960000D03*
X123690000Y-111960000D03*
X113490000Y-82560000D03*
X128890000Y-82560000D03*
D20*
X104000000Y-93750000D03*
X104000000Y-88750000D03*
X104000000Y-83750000D03*
M02*
