G04 #@! TF.GenerationSoftware,KiCad,Pcbnew,no-vcs-found*
G04 #@! TF.CreationDate,2016-12-05T19:06:41+01:00*
G04 #@! TF.ProjectId,relayboard,72656C6179626F6172642E6B69636164,rev?*
G04 #@! TF.FileFunction,Copper,L2,Bot,Signal*
G04 #@! TF.FilePolarity,Positive*
%FSLAX46Y46*%
G04 Gerber Fmt 4.6, Leading zero omitted, Abs format (unit mm)*
G04 Created by KiCad (PCBNEW no-vcs-found) date Mon Dec  5 19:06:41 2016*
%MOMM*%
%LPD*%
G01*
G04 APERTURE LIST*
%ADD10C,0.100000*%
%ADD11R,1.300000X0.700000*%
%ADD12R,0.800100X0.800100*%
%ADD13R,0.600000X1.550000*%
%ADD14O,1.360000X1.600000*%
%ADD15R,1.360000X1.600000*%
%ADD16R,1.250000X1.000000*%
%ADD17R,0.590000X0.450000*%
%ADD18C,1.501140*%
%ADD19R,1.501140X1.501140*%
%ADD20C,3.649980*%
%ADD21C,2.500000*%
%ADD22C,3.000000*%
%ADD23O,3.962400X1.981200*%
%ADD24C,1.800000*%
%ADD25R,1.400000X1.000000*%
%ADD26R,1.016000X2.032000*%
%ADD27R,3.657600X2.032000*%
%ADD28C,0.800000*%
%ADD29C,0.250000*%
G04 APERTURE END LIST*
D10*
D11*
X117600000Y-105950000D03*
X117600000Y-104050000D03*
D12*
X152200000Y-78199240D03*
X154100000Y-78199240D03*
X153150000Y-80198220D03*
D11*
X152400000Y-74750000D03*
X152400000Y-76650000D03*
X150300000Y-81000000D03*
X150300000Y-79100000D03*
D13*
X133160000Y-80800000D03*
X134430000Y-80800000D03*
X135700000Y-80800000D03*
X136970000Y-80800000D03*
X136970000Y-75400000D03*
X135700000Y-75400000D03*
X134430000Y-75400000D03*
X133160000Y-75400000D03*
D14*
X134000000Y-84000000D03*
X136000000Y-84000000D03*
X138000000Y-84000000D03*
X140000000Y-84000000D03*
X142000000Y-84000000D03*
X144000000Y-84000000D03*
X146000000Y-84000000D03*
X148000000Y-84000000D03*
X150000000Y-84000000D03*
D15*
X152000000Y-84000000D03*
X152000000Y-62000000D03*
D14*
X150000000Y-62000000D03*
X148000000Y-62000000D03*
X146000000Y-62000000D03*
X144000000Y-62000000D03*
X142000000Y-62000000D03*
X140000000Y-62000000D03*
X138000000Y-62000000D03*
X136000000Y-62000000D03*
X134000000Y-62000000D03*
D16*
X116400000Y-92700000D03*
X116400000Y-94700000D03*
X126300000Y-92800000D03*
X126300000Y-94800000D03*
X117600000Y-102400000D03*
X117600000Y-100400000D03*
D17*
X124610000Y-63250000D03*
X122500000Y-63250000D03*
D18*
X114390000Y-76695000D03*
X111850000Y-75425000D03*
X114390000Y-74155000D03*
X111850000Y-72885000D03*
X114390000Y-71615000D03*
X111850000Y-70345000D03*
X114390000Y-69075000D03*
D19*
X111850000Y-67805000D03*
D20*
X105500000Y-66319100D03*
X105500000Y-78188520D03*
D21*
X117500000Y-61750000D03*
D22*
X117500000Y-73950000D03*
X129500000Y-73950000D03*
D21*
X129500000Y-61750000D03*
D22*
X123500000Y-59750000D03*
D23*
X104000000Y-105000000D03*
X104000000Y-100000000D03*
D24*
X118690000Y-111960000D03*
X123690000Y-111960000D03*
X113490000Y-82560000D03*
X128890000Y-82560000D03*
D23*
X104000000Y-93750000D03*
X104000000Y-88750000D03*
X104000000Y-83750000D03*
D25*
X133600000Y-93800000D03*
X131400000Y-94750000D03*
X131400000Y-92850000D03*
D12*
X147000000Y-75251780D03*
X146050000Y-77250760D03*
X147950000Y-77250760D03*
D11*
X126900000Y-102350000D03*
X126900000Y-100450000D03*
X124600000Y-100450000D03*
X124600000Y-102350000D03*
X122200000Y-100450000D03*
X122200000Y-102350000D03*
X119900000Y-102350000D03*
X119900000Y-100450000D03*
X128600000Y-98250000D03*
X128600000Y-96350000D03*
X148000000Y-80950000D03*
X148000000Y-79050000D03*
X128600000Y-92750000D03*
X128600000Y-94650000D03*
D26*
X123686000Y-94002000D03*
X119114000Y-94002000D03*
X121400000Y-94002000D03*
D27*
X121400000Y-87398000D03*
D28*
X134600000Y-97700000D03*
X137700000Y-75400000D03*
X134400000Y-81700000D03*
X146000000Y-78000000D03*
X154100000Y-77700000D03*
X112300000Y-87400000D03*
X117000000Y-102200000D03*
X126300000Y-92100000D03*
X128600000Y-92100000D03*
X124400000Y-93900000D03*
X116500000Y-94200000D03*
X116400000Y-76400000D03*
D29*
X134600000Y-97400000D02*
X134600000Y-97700000D01*
X134600000Y-95550000D02*
X134600000Y-97400000D01*
X133600000Y-93800000D02*
X133600000Y-94550000D01*
X133600000Y-94550000D02*
X134600000Y-95550000D01*
X136970000Y-75400000D02*
X137700000Y-75400000D01*
X134430000Y-80800000D02*
X134430000Y-81670000D01*
X134430000Y-81670000D02*
X134400000Y-81700000D01*
X146050000Y-77250760D02*
X146050000Y-77950000D01*
X146050000Y-77950000D02*
X146000000Y-78000000D01*
X154100000Y-78199240D02*
X154100000Y-77700000D01*
X108775000Y-83875000D02*
X112300000Y-87400000D01*
X108750000Y-83875000D02*
X108775000Y-83875000D01*
X117600000Y-102400000D02*
X117200000Y-102400000D01*
X117200000Y-102400000D02*
X117000000Y-102200000D01*
X126300000Y-92800000D02*
X126300000Y-92100000D01*
X128600000Y-92750000D02*
X128600000Y-92100000D01*
X123686000Y-94002000D02*
X124298000Y-94002000D01*
X124298000Y-94002000D02*
X124400000Y-93900000D01*
X116400000Y-94700000D02*
X116400000Y-94300000D01*
X116400000Y-94300000D02*
X116500000Y-94200000D01*
X117600000Y-104050000D02*
X117900000Y-104050000D01*
X135700000Y-75400000D02*
X136970000Y-75400000D01*
X134430000Y-75400000D02*
X135700000Y-75400000D01*
X133160000Y-75400000D02*
X134430000Y-75400000D01*
X117600000Y-102400000D02*
X117475000Y-102400000D01*
X117600000Y-104050000D02*
X117600000Y-102400000D01*
X108750000Y-83875000D02*
X108750000Y-75985000D01*
X108750000Y-75985000D02*
X111850000Y-72885000D01*
X117600000Y-102400000D02*
X119850000Y-102400000D01*
X119850000Y-102400000D02*
X119900000Y-102350000D01*
X150300000Y-79100000D02*
X150300000Y-77164998D01*
X150300000Y-77164998D02*
X152039997Y-75425001D01*
X152039997Y-75425001D02*
X153310001Y-75425001D01*
X153310001Y-75425001D02*
X153375001Y-75360001D01*
X153375001Y-75360001D02*
X153375001Y-64425001D01*
X153375001Y-64425001D02*
X152000000Y-63050000D01*
X152000000Y-63050000D02*
X152000000Y-62000000D01*
X121400000Y-94002000D02*
X121400000Y-92010000D01*
X121400000Y-92010000D02*
X132610000Y-80800000D01*
X132610000Y-80800000D02*
X133160000Y-80800000D01*
X149200000Y-79900000D02*
X137730002Y-79900000D01*
X137730002Y-79900000D02*
X137530001Y-79699999D01*
X137530001Y-79699999D02*
X133785001Y-79699999D01*
X133785001Y-79699999D02*
X133160000Y-80325000D01*
X133160000Y-80325000D02*
X133160000Y-80800000D01*
X126300000Y-94800000D02*
X126425000Y-94800000D01*
X126425000Y-94800000D02*
X127799999Y-93425001D01*
X127799999Y-93425001D02*
X129874999Y-93425001D01*
X129874999Y-93425001D02*
X130450000Y-92850000D01*
X130450000Y-92850000D02*
X131400000Y-92850000D01*
X125750000Y-96100000D02*
X122990000Y-96100000D01*
X122990000Y-96100000D02*
X121400000Y-94510000D01*
X121400000Y-94510000D02*
X121400000Y-94002000D01*
X126300000Y-94800000D02*
X126300000Y-95550000D01*
X126300000Y-95550000D02*
X125750000Y-96100000D01*
X149200000Y-79900000D02*
X150000000Y-79100000D01*
X150000000Y-79100000D02*
X150300000Y-79100000D01*
X152000000Y-84000000D02*
X152000000Y-95300000D01*
X122750000Y-99300000D02*
X122200000Y-99850000D01*
X152000000Y-95300000D02*
X151900000Y-95300000D01*
X151900000Y-95300000D02*
X147900000Y-99300000D01*
X147900000Y-99300000D02*
X122750000Y-99300000D01*
X122200000Y-99850000D02*
X122200000Y-100450000D01*
X119900000Y-100450000D02*
X117650000Y-100450000D01*
X117650000Y-100450000D02*
X117600000Y-100400000D01*
X122200000Y-100450000D02*
X119900000Y-100450000D01*
X151500000Y-74750000D02*
X149749999Y-76500001D01*
X116500001Y-76500001D02*
X116400000Y-76400000D01*
X149749999Y-76500001D02*
X116500001Y-76500001D01*
X152400000Y-74750000D02*
X151500000Y-74750000D01*
X118690000Y-111960000D02*
X118690000Y-108700000D01*
X118690000Y-106740000D02*
X118690000Y-108700000D01*
X118690000Y-108700000D02*
X118690000Y-108540000D01*
X118690000Y-106740000D02*
X117900000Y-105950000D01*
X117900000Y-105950000D02*
X117600000Y-105950000D01*
X126900000Y-102350000D02*
X126900000Y-106150000D01*
X126900000Y-106150000D02*
X123690000Y-109360000D01*
X123690000Y-109360000D02*
X123690000Y-111960000D01*
X126890000Y-102360000D02*
X126900000Y-102350000D01*
X148000000Y-84000000D02*
X148000000Y-82950000D01*
X148000000Y-82950000D02*
X148000000Y-80950000D01*
X150300000Y-81000000D02*
X152998270Y-81000000D01*
X152998270Y-81000000D02*
X153150000Y-80848270D01*
X153150000Y-80848270D02*
X153150000Y-80198220D01*
X150300000Y-81000000D02*
X150300000Y-83700000D01*
X150300000Y-83700000D02*
X150000000Y-84000000D01*
X128600000Y-94650000D02*
X131300000Y-94650000D01*
X131300000Y-94650000D02*
X131400000Y-94750000D01*
X128600000Y-96350000D02*
X128600000Y-94650000D01*
X148000000Y-79050000D02*
X148000000Y-77300760D01*
X148000000Y-77300760D02*
X147950000Y-77250760D01*
X152200000Y-78199240D02*
X152200000Y-76850000D01*
X152200000Y-76850000D02*
X152400000Y-76650000D01*
X126900000Y-100450000D02*
X124600000Y-100450000D01*
X124600000Y-102350000D02*
X122200000Y-102350000D01*
X134000000Y-84000000D02*
X134000000Y-83880000D01*
X134000000Y-83880000D02*
X135700000Y-82180000D01*
X135700000Y-82180000D02*
X135700000Y-81825000D01*
X135700000Y-81825000D02*
X135700000Y-80800000D01*
X136000000Y-84000000D02*
X136000000Y-82950000D01*
X136970000Y-81825000D02*
X136970000Y-80800000D01*
X136000000Y-82950000D02*
X136970000Y-81980000D01*
X136970000Y-81980000D02*
X136970000Y-81825000D01*
X147000000Y-75251780D02*
X143001780Y-75251780D01*
X143001780Y-75251780D02*
X129500000Y-61750000D01*
X124610000Y-63250000D02*
X128000000Y-63250000D01*
X128000000Y-63250000D02*
X129500000Y-61750000D01*
X117500000Y-61750000D02*
X117500000Y-65965000D01*
X117500000Y-65965000D02*
X114390000Y-69075000D01*
X122500000Y-63250000D02*
X119000000Y-63250000D01*
X119000000Y-63250000D02*
X117500000Y-61750000D01*
X119114000Y-94002000D02*
X119114000Y-95268000D01*
X119114000Y-95268000D02*
X122096000Y-98250000D01*
X122096000Y-98250000D02*
X127700000Y-98250000D01*
X127700000Y-98250000D02*
X128600000Y-98250000D01*
X116400000Y-92700000D02*
X118320000Y-92700000D01*
X118320000Y-92700000D02*
X119114000Y-93494000D01*
X119114000Y-93494000D02*
X119114000Y-94002000D01*
X113490000Y-85865000D02*
X116400000Y-88775000D01*
X116400000Y-88775000D02*
X116400000Y-92700000D01*
X113490000Y-82560000D02*
X114389999Y-81660001D01*
X114389999Y-81660001D02*
X114389999Y-81610001D01*
X113490000Y-82560000D02*
X115624999Y-80425001D01*
X115624999Y-70309999D02*
X115140569Y-69825569D01*
X115624999Y-80425001D02*
X115624999Y-70309999D01*
X115140569Y-69825569D02*
X114390000Y-69075000D01*
X113490000Y-82560000D02*
X113490000Y-85865000D01*
M02*
